<svg width="25" height="25" viewBox="0 0 25 25" fill="none" xmlns="http://www.w3.org/2000/svg">
<path d="M4.0998 11.2996H2.8998V11.2996L4.0998 11.2996ZM4.95137 15.2488L6.04482 14.7545C6.25051 15.2095 6.15296 15.7443 5.79989 16.0974L4.95137 15.2488ZM1.70039 18.4998L0.851862 19.3483C0.383232 18.8797 0.383232 18.1199 0.851862 17.6513L1.70039 18.4998ZM6.50019 23.2996L7.34872 24.1481C6.88009 24.6168 6.1203 24.6168 5.65167 24.1481L6.50019 23.2996ZM9.75117 20.0486L8.90264 19.2001C9.25571 18.847 9.79051 18.7495 10.2455 18.9552L9.75117 20.0486ZM13.7004 20.9002L13.7004 22.1002H13.7004V20.9002ZM23.3 1.70001V0.500012C23.9627 0.500012 24.5 1.03727 24.5 1.70001L23.3 1.70001ZM13.7004 1.70001V2.90001C9.06122 2.90001 5.29999 6.66073 5.2998 11.2997L4.0998 11.2996L2.8998 11.2996C2.90004 5.335 7.73596 0.500012 13.7004 0.500012V1.70001ZM4.0998 11.2996H5.2998C5.2998 12.5317 5.568 13.6998 6.04482 14.7545L4.95137 15.2488L3.85791 15.7432C3.24537 14.3882 2.8998 12.8839 2.8998 11.2996H4.0998ZM4.95137 15.2488L5.79989 16.0974L2.54892 19.3483L1.70039 18.4998L0.851862 17.6513L4.10284 14.4003L4.95137 15.2488ZM1.70039 18.4998L2.54892 17.6513L7.34872 22.4511L6.50019 23.2996L5.65167 24.1481L0.851862 19.3483L1.70039 18.4998ZM6.50019 23.2996L5.65167 22.4511L8.90264 19.2001L9.75117 20.0486L10.5997 20.8972L7.34872 24.1481L6.50019 23.2996ZM9.75117 20.0486L10.2455 18.9552C11.3002 19.432 12.4683 19.7002 13.7004 19.7002V20.9002V22.1002C12.1161 22.1002 10.6118 21.7546 9.25685 21.1421L9.75117 20.0486ZM13.7004 20.9002L13.7003 19.7002C18.3393 19.7 22.1 15.9388 22.1 11.2996H23.3H24.5C24.5 17.2641 19.665 22.1 13.7004 22.1002L13.7004 20.9002ZM23.3 11.2996H22.1V1.70001H23.3H24.5V11.2996H23.3ZM23.3 1.70001V2.90001H13.7004V1.70001V0.500012H23.3V1.70001Z" fill="#F8F8F8"/>
<path d="M13.7004 13.1004C14.6943 13.1002 15.5002 12.2936 15.5002 11.2996C15.5 10.3058 14.6942 9.50003 13.7004 9.49982C12.7064 9.49982 11.8998 10.3057 11.8996 11.2996C11.8996 12.2937 12.7063 13.1004 13.7004 13.1004Z" stroke="#F8F8F8" stroke-width="1.2"/>
<path d="M23.3 1.70001L13.7 11.3" stroke="#F8F8F8" stroke-width="2.4" stroke-linecap="round" stroke-linejoin="round"/>
</svg>
