<svg width="40" height="40" viewBox="0 0 40 40" fill="none" xmlns="http://www.w3.org/2000/svg">
<path d="M20.6455 1.20703C21.4228 1.1645 22.1935 1.32373 22.8682 1.66211C23.5424 2.00029 24.0863 2.50001 24.4502 3.0918L24.9541 3.91113L25.8633 3.59766C26.4888 3.3822 27.1569 3.28126 27.8281 3.30176H27.8643C29.0151 3.30176 29.9934 3.59393 30.6836 4.02344C31.3775 4.45535 31.715 4.97613 31.793 5.44531L32.0146 6.78516L33.3164 6.40039C33.7971 6.25829 34.2997 6.18177 34.8066 6.1748H34.8447L34.8818 6.17188C35.8549 6.09705 36.809 6.37944 37.5371 6.93848C38.2473 7.48372 38.6787 8.24069 38.7803 9.03906V16.9209L38.7812 16.9414C38.9374 21.5341 38.1382 26.114 36.4258 30.4336L36.4072 30.4805L36.3926 30.5293C35.4445 33.6704 33.569 36.5191 30.9629 38.7568C30.9226 38.7797 30.8701 38.7991 30.8076 38.7998H14.6504C14.5867 38.8 14.5325 38.7816 14.4951 38.7578C10.9884 36.2758 7.97944 33.2542 5.59863 29.8301C3.8425 27.2214 2.53413 24.1967 1.81836 21.3076C1.09725 18.3969 1.00546 15.7397 1.55176 13.8223C2.07748 11.9773 3.35779 10.5761 4.78613 9.54199C6.21217 8.50959 7.69991 7.9063 8.46777 7.63867L9.27344 7.3584V5.25586C9.3607 4.46828 9.77382 3.7178 10.4639 3.1709C11.1709 2.61066 12.1051 2.31729 13.0654 2.37598L13.1064 2.37793H13.1475C13.9862 2.37186 14.8057 2.57772 15.5166 2.9668L16.375 3.43652L17.0088 2.69043C17.4128 2.21378 17.9413 1.82441 18.5557 1.56348C19.1701 1.30256 19.8476 1.17996 20.5303 1.20801L20.5879 1.20996L20.6455 1.20703ZM20.5957 1.40723C19.7342 1.40723 18.9716 1.60006 18.3877 1.90137C18.0989 2.0504 17.8199 2.24417 17.5957 2.48633C17.394 2.70418 17.1134 3.09848 17.1133 3.63184V12.25H16.6992V5.19141C16.6992 4.28338 16.0957 3.60142 15.5088 3.21094C14.8816 2.79368 14.0637 2.54792 13.1699 2.54785C12.2698 2.54785 11.456 2.8008 10.8369 3.22754C10.2547 3.629 9.68756 4.31106 9.6875 5.19141V20.3809C9.6873 20.3817 9.68662 20.3833 9.68555 20.3857C9.68311 20.3912 9.67644 20.4028 9.66113 20.417C9.62834 20.4473 9.56467 20.4784 9.48047 20.4785C9.39635 20.4785 9.33271 20.4472 9.2998 20.417C9.28448 20.4028 9.27784 20.3912 9.27539 20.3857C9.27431 20.3833 9.27366 20.3817 9.27344 20.3809V7.60254L7.65137 8.21191C6.35028 8.70023 5.16768 9.43723 4.18262 10.3809C3.1972 11.3249 2.43016 12.4555 1.93848 13.7021L1.91211 13.7695L1.89355 13.8398C1.42072 15.6537 1.49746 18.2215 2.12891 20.9893C2.76664 23.7845 3.99402 26.8917 5.93262 29.8076L5.94043 29.8193L5.94922 29.832C8.2299 33.0868 11.0702 35.9703 14.3535 38.3701L14.6689 38.6016H30.7559L31.1045 38.2656C33.3679 36.0835 35.0465 33.429 35.9961 30.5176C37.7289 26.167 38.5347 21.5452 38.3662 16.9072L38.4131 8.9375V8.93066C38.413 7.98567 37.7019 7.33166 37.1572 6.99707C36.539 6.61733 35.7353 6.37858 34.8623 6.37402H34.8369C33.9941 6.36034 33.1601 6.58721 32.4482 7.03418L31.8857 7.38672V13.8809H31.4561V5.69727C31.4561 5.13732 31.133 4.74197 30.9512 4.55664C30.7295 4.33077 30.4538 4.14724 30.165 4.00293C29.5799 3.71059 28.8077 3.51465 27.9111 3.51465V3.51562C27.0542 3.4976 26.2037 3.71068 25.4648 4.13867L25.4375 4.1543L25.4111 4.17188L25.1455 4.34473L24.6006 4.7002V12.4375H24.1875V3.69043C24.1875 3.11592 23.8507 2.70807 23.666 2.51855C23.4388 2.28555 23.1562 2.09212 22.8613 1.93848C22.2659 1.62824 21.4783 1.4073 20.5957 1.40723Z" stroke="#F8F8F8" stroke-width="2.4"/>
</svg>
