<svg width="17" height="13" viewBox="0 0 17 13" fill="none" xmlns="http://www.w3.org/2000/svg">
<path d="M4.70711 1.70711C5.09763 1.31658 5.09763 0.683417 4.70711 0.292893C4.31658 -0.0976311 3.68342 -0.0976311 3.29289 0.292893L4 1L4.70711 1.70711ZM1 4L0.292893 3.29289C-0.0976311 3.68342 -0.0976311 4.31658 0.292893 4.70711L1 4ZM3.29289 7.70711C3.68342 8.09763 4.31658 8.09763 4.70711 7.70711C5.09763 7.31658 5.09763 6.68342 4.70711 6.29289L4 7L3.29289 7.70711ZM1 11C0.447715 11 0 11.4477 0 12C0 12.5523 0.447715 13 1 13V12V11ZM4 1L3.29289 0.292893L0.292893 3.29289L1 4L1.70711 4.70711L4.70711 1.70711L4 1ZM1 4L0.292893 4.70711L3.29289 7.70711L4 7L4.70711 6.29289L1.70711 3.29289L1 4ZM1 4V5H12V4V3H1V4ZM16 8H15C15 9.65685 13.6569 11 12 11V12V13C14.7614 13 17 10.7614 17 8H16ZM12 4V5C13.6569 5 15 6.34315 15 8H16H17C17 5.23858 14.7614 3 12 3V4ZM1 12V13H12V12V11H1V12Z" fill="#F8F8F8"/>
</svg>
