<svg width="26" height="25" viewBox="0 0 26 25" fill="none" xmlns="http://www.w3.org/2000/svg">
<path d="M4.03702 4.68802C3.99755 4.59694 3.98638 4.49609 4.00496 4.39858C4.02354 4.30107 4.07101 4.21139 4.1412 4.1412C4.21139 4.07101 4.30107 4.02354 4.39858 4.00496C4.49609 3.98638 4.59694 3.99755 4.68802 4.03702L20.688 10.537C20.7853 10.5767 20.8676 10.6459 20.9233 10.735C20.979 10.8241 21.0052 10.9284 20.9983 11.0333C20.9913 11.1381 20.9515 11.238 20.8845 11.319C20.8175 11.3999 20.7267 11.4576 20.625 11.484L14.501 13.064C14.155 13.153 13.8391 13.333 13.5863 13.5853C13.3334 13.8377 13.1527 14.1532 13.063 14.499L11.484 20.625C11.4576 20.7267 11.3999 20.8175 11.319 20.8845C11.238 20.9515 11.1381 20.9913 11.0333 20.9983C10.9284 21.0052 10.8241 20.979 10.735 20.9233C10.6459 20.8676 10.5767 20.7853 10.537 20.688L4.03702 4.68802Z" stroke="#F8F8F8" stroke-width="2" stroke-linecap="round" stroke-linejoin="round"/>
<path d="M9.036 9.61028C9.00118 9.52993 8.99133 9.44097 9.00772 9.35495C9.0241 9.26892 9.06598 9.18982 9.1279 9.1279C9.18982 9.06598 9.26892 9.0241 9.35495 9.00772C9.44097 8.99133 9.52993 9.00118 9.61028 9.036L23.7247 14.77C23.8105 14.805 23.8832 14.8661 23.9323 14.9446C23.9814 15.0232 24.0045 15.1153 23.9984 15.2077C23.9922 15.3002 23.9571 15.3884 23.898 15.4598C23.8389 15.5311 23.7588 15.5821 23.6691 15.6054L18.2668 16.9992C17.9616 17.0777 17.683 17.2365 17.4599 17.4591C17.2368 17.6817 17.0774 17.96 16.9983 18.2651L15.6054 23.6691C15.5821 23.7588 15.5311 23.8389 15.4598 23.898C15.3884 23.9571 15.3002 23.9922 15.2077 23.9984C15.1153 24.0045 15.0232 23.9814 14.9446 23.9323C14.8661 23.8832 14.805 23.8105 14.77 23.7247L9.036 9.61028Z" stroke="#F8F8F8" stroke-width="2" stroke-linecap="round" stroke-linejoin="round"/>
</svg>
